<svg width="334" height="340" viewBox="0 0 334 340" fill="none" xmlns="http://www.w3.org/2000/svg">
<g clip-path="url(#clip0_46_12)">
<path d="M13 150.198L119.247 77L146.559 90.6564V136.269L88.3833 177.238L146.559 207.009V253.987L13 185.705V150.198ZM55.6079 164.128L116.515 121.247V82.1894L15.7313 151.564V184.066L116.515 235.687V194.991L55.6079 164.128Z" fill="black"/>
<path d="M186.886 249.344V202.366L245.063 162.489L186.886 131.626V86.2864L320.446 154.841V190.348L214.199 263L186.886 249.344ZM189.618 90.9295V129.987L250.525 162.216L189.618 203.731V244.154L290.402 175.326V142.824L189.618 90.9295Z" fill="black"/>
<path d="M55.6079 164.128L116.515 121.247V82.1894L15.7313 151.564V184.066L116.515 235.687V194.991L55.6079 164.128Z" fill="#FFB342"/>
<path d="M189.618 90.9295V129.987L250.525 162.216L189.618 203.731V244.154L290.402 175.326V142.824L189.618 90.9295Z" fill="#FFB342"/>
<path d="M12.8009 149.909L12.649 150.014V150.198V185.705V185.92L12.8402 186.017L146.4 254.299L146.91 254.56V253.987V207.009V206.794L146.719 206.696L89.0605 177.19L146.762 136.556L146.91 136.451V136.269V90.6564V90.4395L146.716 90.3425L119.404 76.6861L119.218 76.5934L119.048 76.711L12.8009 149.909ZM186.535 249.344V249.561L186.729 249.658L214.042 263.314L214.227 263.406L214.397 263.29L320.644 190.638L320.797 190.533V190.348V154.841V154.627L320.606 154.529L187.047 85.9741L186.535 85.7117V86.2864V131.626V131.837L186.722 131.936L244.386 162.527L186.688 202.076L186.535 202.181V202.366V249.344Z" stroke="black" stroke-width="0.701936"/>
</g>
<defs>
<clipPath id="clip0_46_12">
<rect width="334" height="340" fill="white"/>
</clipPath>
</defs>
</svg>
